<svg xmlns="http://www.w3.org/2000/svg" xmlns:xlink="http://www.w3.org/1999/xlink" width="500" zoomAndPan="magnify" viewBox="0 0 375 374.999991" height="500" preserveAspectRatio="xMidYMid meet" version="1.0"><defs><clipPath id="id1"><path d="M 83.359375 114 L 254 114 L 254 261 L 83.359375 261 Z M 83.359375 114 " clip-rule="nonzero"/></clipPath><clipPath id="id2"><path d="M 118 80.554688 L 291 80.554688 L 291 294.304688 L 118 294.304688 Z M 118 80.554688 " clip-rule="nonzero"/></clipPath><clipPath id="id3"><path d="M 132.417969 149.132812 L 188 149.132812 L 188 212.132812 L 132.417969 212.132812 Z M 132.417969 149.132812 " clip-rule="nonzero"/></clipPath></defs><rect x="-37.5" width="450" fill="#ffffff" y="-37.499999" height="449.999989" fill-opacity="1"/><rect x="-37.5" width="450" fill="#ffffff" y="-37.499999" height="449.999989" fill-opacity="1"/><rect x="-37.5" width="450" fill="#ffffff" y="-37.499999" height="449.999989" fill-opacity="1"/><rect x="-37.5" width="450" fill="#ffffff" y="-37.499999" height="449.999989" fill-opacity="1"/><g clip-path="url(#id1)"><path fill="#ffa722" d="M 230.972656 189.933594 C 229.640625 216.804688 206.421875 237.429688 179.476562 237.429688 L 152.796875 237.429688 L 152.796875 260.15625 L 179.140625 260.15625 C 218.601562 260.15625 252.25 229.585938 253.742188 190.21875 C 255.308594 148.835938 222.042969 114.671875 180.929688 114.671875 L 83.417969 114.671875 L 83.417969 260.15625 C 95.988281 260.15625 106.179688 249.980469 106.179688 237.429688 L 106.179688 137.398438 L 180.929688 137.398438 C 209.394531 137.398438 232.394531 161.214844 230.972656 189.933594 " fill-opacity="1" fill-rule="nonzero"/></g><g clip-path="url(#id2)"><path fill="#ff7c2c" d="M 180.726562 80.542969 L 118.652344 80.542969 C 118.652344 93.09375 128.84375 103.265625 141.414062 103.265625 L 180.933594 103.265625 C 226.578125 103.265625 265.507812 138.628906 267.234375 184.160156 C 269.050781 232.035156 230.5625 271.558594 183.003906 271.558594 L 141.414062 271.558594 L 141.414062 149.070312 L 118.652344 149.070312 L 118.652344 294.28125 L 183.003906 294.28125 C 243.113281 294.28125 291.808594 244.574219 290.011719 184.175781 C 288.28125 126.050781 238.980469 80.542969 180.726562 80.542969 " fill-opacity="1" fill-rule="nonzero"/></g><g clip-path="url(#id3)"><path fill="#ff7c2c" d="M 167.257812 188.402344 L 187.011719 211.992188 L 178.40625 211.992188 C 175.433594 211.992188 172.457031 211.933594 169.484375 212.023438 C 168.957031 212.070312 168.453125 211.980469 167.972656 211.75 C 167.492188 211.523438 167.101562 211.191406 166.804688 210.753906 C 161.058594 203.523438 155.246094 196.34375 149.492188 189.121094 C 149.246094 188.765625 148.929688 188.496094 148.542969 188.308594 C 148.15625 188.121094 147.746094 188.039062 147.316406 188.066406 C 134.300781 188.121094 121.292969 188.113281 108.277344 188.191406 C 106.960938 188.195312 106.714844 187.847656 106.714844 186.597656 C 106.796875 182.175781 106.785156 177.753906 106.714844 173.332031 C 106.714844 172.222656 106.945312 171.882812 108.128906 171.882812 C 127.039062 171.882812 145.949219 171.851562 164.855469 171.796875 C 165.589844 171.824219 166.316406 171.800781 167.042969 171.722656 C 169.253906 171.414062 170.574219 169.933594 170.503906 167.929688 C 170.4375 166.023438 169.042969 164.691406 166.855469 164.484375 C 166.222656 164.429688 165.589844 164.441406 164.953125 164.441406 C 146.042969 164.441406 127.128906 164.464844 108.222656 164.503906 C 107.042969 164.511719 106.714844 164.273438 106.714844 163.027344 C 106.808594 158.863281 106.78125 154.667969 106.714844 150.488281 C 106.714844 149.5625 106.929688 149.28125 107.910156 149.28125 C 128.378906 149.28125 148.847656 149.179688 169.320312 149.3125 C 175.652344 149.355469 180.164062 153.050781 183.347656 158.21875 C 190.695312 170.140625 184.242188 184.984375 170.523438 187.945312 C 169.53125 188.15625 168.503906 188.230469 167.257812 188.402344 Z M 167.257812 188.402344 " fill-opacity="1" fill-rule="nonzero"/></g></svg>