<svg xmlns="http://www.w3.org/2000/svg" xmlns:xlink="http://www.w3.org/1999/xlink" width="500" zoomAndPan="magnify" viewBox="0 0 375 374.999991" height="500" preserveAspectRatio="xMidYMid meet" version="1.0"><defs><g/><clipPath id="id1"><path d="M 23 44.152344 L 353.734375 44.152344 L 353.734375 330.652344 L 23 330.652344 Z M 23 44.152344 " clip-rule="nonzero"/></clipPath><clipPath id="id2"><path d="M 86 154 L 291 154 L 291 330.652344 L 86 330.652344 Z M 86 154 " clip-rule="nonzero"/></clipPath></defs><rect x="-37.5" width="450" fill="#ffffff" y="-37.499999" height="449.999989" fill-opacity="1"/><rect x="-37.5" width="450" fill="#ffffff" y="-37.499999" height="449.999989" fill-opacity="1"/><rect x="-37.5" width="450" fill="#ffffff" y="-37.499999" height="449.999989" fill-opacity="1"/><g clip-path="url(#id1)"><path fill="#ff7c2c" d="M 188.398438 109.949219 L 315.855469 330.378906 L 353.785156 330.378906 L 188.398438 44.347656 L 23.015625 330.378906 L 60.945312 330.378906 L 188.398438 109.949219 " fill-opacity="1" fill-rule="nonzero"/></g><g clip-path="url(#id2)"><path fill="#ff7c2c" d="M 188.398438 219.875 L 252.296875 330.378906 L 290.226562 330.378906 L 188.398438 154.273438 L 86.574219 330.378906 L 124.503906 330.378906 L 188.398438 219.875 " fill-opacity="1" fill-rule="nonzero"/></g><path fill="#ffa722" d="M 134.710938 249.308594 L 243.445312 249.308594 L 243.445312 286.808594 L 134.710938 286.808594 L 134.710938 249.308594 " fill-opacity="1" fill-rule="nonzero"/><g fill="#ffffff" fill-opacity="1"><g transform="translate(139.843953, 276.700158)"><g><path d="M 11.84375 -3.4375 L 4.15625 -3.4375 L 2.703125 0 L 0.015625 0 L 6.75 -15.234375 L 9.375 -15.234375 L 16.046875 0 L 13.296875 0 Z M 10.859375 -5.71875 L 7.984375 -12.5 L 5.109375 -5.71875 Z M 10.859375 -5.71875 "/></g></g></g><g fill="#ffffff" fill-opacity="1"><g transform="translate(165.499255, 276.700158)"><g><path d="M 11.671875 0 L 8.875 -4.609375 C 8.726562 -4.597656 8.5 -4.59375 8.1875 -4.59375 L 4.578125 -4.59375 L 4.578125 0 L 2 0 L 2 -15.234375 L 8.1875 -15.234375 C 10.125 -15.234375 11.628906 -14.78125 12.703125 -13.875 C 13.785156 -12.96875 14.328125 -11.6875 14.328125 -10.03125 C 14.328125 -8.8125 14.050781 -7.78125 13.5 -6.9375 C 12.957031 -6.101562 12.179688 -5.488281 11.171875 -5.09375 L 14.578125 0 Z M 4.578125 -6.90625 L 8.1875 -6.90625 C 10.65625 -6.90625 11.890625 -7.925781 11.890625 -9.96875 C 11.890625 -11.9375 10.65625 -12.921875 8.1875 -12.921875 L 4.578125 -12.921875 Z M 4.578125 -6.90625 "/></g></g></g><g fill="#ffffff" fill-opacity="1"><g transform="translate(190.828171, 276.700158)"><g><path d="M 18.109375 0 L 15.734375 0 L 15.71875 -11.390625 L 10.90625 -1.59375 L 9.234375 -1.59375 L 4.421875 -11.390625 L 4.421875 0 L 2 0 L 2 -15.234375 L 5.046875 -15.234375 L 10.078125 -5.109375 L 15.078125 -15.234375 L 18.109375 -15.234375 Z M 18.109375 0 "/></g></g></g><g fill="#ffffff" fill-opacity="1"><g transform="translate(220.552423, 276.700158)"><g><path d="M 11.84375 -3.4375 L 4.15625 -3.4375 L 2.703125 0 L 0.015625 0 L 6.75 -15.234375 L 9.375 -15.234375 L 16.046875 0 L 13.296875 0 Z M 10.859375 -5.71875 L 7.984375 -12.5 L 5.109375 -5.71875 Z M 10.859375 -5.71875 "/></g></g></g></svg>