<svg xmlns="http://www.w3.org/2000/svg" xmlns:xlink="http://www.w3.org/1999/xlink" width="500" zoomAndPan="magnify" viewBox="0 0 375 374.999991" height="500" preserveAspectRatio="xMidYMid meet" version="1.0"><defs><g/><clipPath id="id1"><path d="M 23 44.152344 L 353.734375 44.152344 L 353.734375 330.652344 L 23 330.652344 Z M 23 44.152344 " clip-rule="nonzero"/></clipPath><clipPath id="id2"><path d="M 86 154 L 291 154 L 291 330.652344 L 86 330.652344 Z M 86 154 " clip-rule="nonzero"/></clipPath></defs><rect x="-37.5" width="450" fill="#050a30" y="-37.499999" height="449.999989" fill-opacity="1"/><rect x="-37.5" width="450" fill="#ffffff" y="-37.499999" height="449.999989" fill-opacity="1"/><rect x="-37.5" width="450" fill="#050a30" y="-37.499999" height="449.999989" fill-opacity="1"/><g clip-path="url(#id1)"><path fill="#ff7c2c" d="M 188.398438 109.949219 L 315.855469 330.378906 L 353.785156 330.378906 L 188.398438 44.347656 L 23.015625 330.378906 L 60.945312 330.378906 L 188.398438 109.949219 " fill-opacity="1" fill-rule="nonzero"/></g><g clip-path="url(#id2)"><path fill="#ff7c2c" d="M 188.398438 219.875 L 252.296875 330.378906 L 290.226562 330.378906 L 188.398438 154.273438 L 86.574219 330.378906 L 124.503906 330.378906 L 188.398438 219.875 " fill-opacity="1" fill-rule="nonzero"/></g><path fill="#ffa722" d="M 72.59375 210.753906 L 302.050781 210.753906 L 302.050781 257.253906 L 72.59375 257.253906 L 72.59375 210.753906 " fill-opacity="1" fill-rule="nonzero"/><g fill="#ffffff" fill-opacity="1"><g transform="translate(113.318202, 247.504901)"><g><path d="M 18.09375 -5.25 L 6.34375 -5.25 L 4.125 0 L 0.03125 0 L 10.3125 -23.28125 L 14.328125 -23.28125 L 24.5 0 L 20.3125 0 Z M 16.59375 -8.75 L 12.203125 -19.078125 L 7.8125 -8.75 Z M 16.59375 -8.75 "/></g></g></g><g fill="#ffffff" fill-opacity="1"><g transform="translate(152.522879, 247.504901)"><g><path d="M 17.828125 0 L 13.5625 -7.046875 C 13.34375 -7.023438 12.988281 -7.015625 12.5 -7.015625 L 6.984375 -7.015625 L 6.984375 0 L 3.0625 0 L 3.0625 -23.28125 L 12.5 -23.28125 C 15.46875 -23.28125 17.769531 -22.585938 19.40625 -21.203125 C 21.050781 -19.816406 21.875 -17.859375 21.875 -15.328125 C 21.875 -13.460938 21.457031 -11.882812 20.625 -10.59375 C 19.800781 -9.3125 18.613281 -8.375 17.0625 -7.78125 L 22.28125 0 Z M 6.984375 -10.546875 L 12.5 -10.546875 C 16.269531 -10.546875 18.15625 -12.109375 18.15625 -15.234375 C 18.15625 -18.242188 16.269531 -19.75 12.5 -19.75 L 6.984375 -19.75 Z M 6.984375 -10.546875 "/></g></g></g><g fill="#ffffff" fill-opacity="1"><g transform="translate(191.228796, 247.504901)"><g><path d="M 27.671875 0 L 24.046875 0 L 24 -17.390625 L 16.65625 -2.421875 L 14.09375 -2.421875 L 6.75 -17.390625 L 6.75 0 L 3.0625 0 L 3.0625 -23.28125 L 7.71875 -23.28125 L 15.390625 -7.8125 L 23.046875 -23.28125 L 27.671875 -23.28125 Z M 27.671875 0 "/></g></g></g><g fill="#ffffff" fill-opacity="1"><g transform="translate(236.651364, 247.504901)"><g><path d="M 18.09375 -5.25 L 6.34375 -5.25 L 4.125 0 L 0.03125 0 L 10.3125 -23.28125 L 14.328125 -23.28125 L 24.5 0 L 20.3125 0 Z M 16.59375 -8.75 L 12.203125 -19.078125 L 7.8125 -8.75 Z M 16.59375 -8.75 "/></g></g></g></svg>